<svg width="282" height="102" viewBox="0 0 282 102" fill="none" xmlns="http://www.w3.org/2000/svg">
<path d="M44.608 71V28.312H3.456V71H16.384V39.576H31.68V71H44.608ZM71.4865 71.768C79.1665 71.768 85.0545 66.136 85.0545 55.512C85.0545 44.952 79.1665 39.32 71.4865 39.32C68.2865 39.32 65.2785 40.408 62.7825 43.352V40.088H51.2625V82.776H62.7825V67.736C65.3425 70.68 68.2865 71.768 71.4865 71.768ZM67.5185 61.592C66.0465 61.592 63.8065 60.76 62.7825 59.48V51.608C63.8705 50.264 66.0465 49.496 67.5185 49.496C70.5905 49.496 73.2785 51.672 73.2785 55.512C73.2785 59.416 70.5905 61.592 67.5185 61.592ZM118.701 71V52.312C118.701 42.008 111.213 39.32 103.533 39.32C98.861 39.32 93.101 40.664 88.941 43.992L92.845 51.096C95.277 49.24 98.541 48.088 101.421 48.088C105.197 48.088 107.181 49.752 107.181 51.928V55.128C105.517 53.016 101.869 51.736 97.837 51.736C93.229 51.736 87.213 53.912 87.213 61.592C87.213 68.632 93.229 71.768 97.837 71.768C101.677 71.768 105.453 70.232 107.181 68.056V71H118.701ZM102.637 64.28C100.717 64.28 98.605 63.704 98.605 61.784C98.605 59.864 100.717 59.224 102.637 59.224C104.429 59.224 106.413 59.8 107.181 60.888V62.616C106.413 63.704 104.429 64.28 102.637 64.28ZM148.051 71C154.899 71 158.163 66.904 158.163 62.552C158.163 58.712 155.667 55.768 152.083 55.064C155.155 54.168 157.459 51.672 157.459 48.024C157.459 44.376 154.387 40.088 147.347 40.088H125.075V71H148.051ZM144.915 62.488H136.595V59.608H144.915C145.875 59.608 146.579 60.184 146.579 61.08C146.579 61.912 145.875 62.488 144.915 62.488ZM144.467 51.16H136.595V48.6H144.467C145.299 48.6 145.875 49.176 145.875 49.88C145.875 50.584 145.235 51.16 144.467 51.16ZM179.87 71.768C190.878 71.768 197.278 64.152 197.278 55.512C197.278 46.872 190.878 39.32 179.87 39.32C168.926 39.32 162.526 46.872 162.526 55.512C162.526 64.152 168.926 71.768 179.87 71.768ZM179.87 61.592C176.35 61.592 174.366 58.968 174.366 55.512C174.366 52.12 176.35 49.496 179.87 49.496C183.454 49.496 185.438 52.12 185.438 55.512C185.438 58.968 183.454 61.592 179.87 61.592Z" fill="white"/>
<rect x="213" y="28.9602" width="67.9997" height="48.0855" rx="8" fill="white"/>
<path d="M237.88 64.2461V46.5701H244.288V40.2341H224.164V46.5701H230.608V64.2461H237.88ZM262.278 64.2461L271.134 40.2341H262.89L257.706 56.3981L252.522 40.2341H244.278L253.134 64.2461H262.278Z" fill="#5C23D2"/>
</svg>
