<svg width="253" height="28" viewBox="0 0 253 28" fill="none" xmlns="http://www.w3.org/2000/svg">
<path d="M27.1019 0.821045C24.1882 0.824192 21.2979 1.33556 18.5641 2.33162C18.4821 2.36876 18.4139 2.43012 18.3687 2.50723C18.3235 2.58434 18.3036 2.6734 18.3119 2.76213L18.7705 5.78328C18.7755 5.81685 18.7876 5.84899 18.8061 5.87762C18.8245 5.90625 18.8488 5.93072 18.8775 5.94944C18.9085 5.96417 18.9424 5.97182 18.9768 5.97182C19.0112 5.97182 19.0452 5.96417 19.0762 5.94944C20.3338 5.59162 21.6094 5.29918 22.898 5.07331C25.9554 4.55971 27.6522 4.69567 28.5083 5.49627C28.7535 5.7535 28.9302 6.06699 29.0222 6.40849C29.1143 6.74999 29.1189 7.10876 29.0357 7.45246L28.9593 8.02648C28.9593 8.02648 25.2522 8.51742 22.8445 8.96304C21.0368 9.19321 19.2935 9.776 17.7157 10.6775C15.2086 12.2938 14.5895 15.4509 15.071 17.7017C15.4914 19.673 17.2494 22.0295 23.2496 22.0295H23.6852C32.8574 22.0295 34.0575 20.4812 34.4626 17.2032L35.0053 12.8377L35.7238 7.08237C35.9454 5.30745 35.6167 3.94793 34.6995 2.9434C33.4001 1.50836 30.916 0.821045 27.1019 0.821045ZM28.4548 11.9464C28.4548 11.9464 28.2713 13.6534 28.2713 13.676L27.7287 17.9887H27.6522C26.7984 18.2189 25.9153 18.3257 25.0305 18.3059C24.0423 18.3953 23.0572 18.106 22.2788 17.4978C22.0325 17.2347 21.8426 16.9251 21.7204 16.5877C21.5982 16.2502 21.5464 15.8918 21.568 15.534C21.568 13.812 22.6075 12.7319 24.7324 12.3392C26.8573 11.9464 28.5542 11.7651 28.5542 11.7651L28.4548 11.9464Z" fill="#F1361D"/>
<path d="M110.221 0.827881H109.548C104.687 0.827881 101.385 2.21006 99.7419 4.92909C98.4195 7.09676 97.7851 14.4457 97.7775 14.5212C97.6337 15.6869 97.7592 16.8696 98.1444 17.9804C99.5126 21.5832 104.259 22.0665 106.988 22.0363C111.887 22.0363 115.197 20.6542 116.81 18.0031C117.307 17.1874 118.033 14.9064 118.705 8.72063V8.50159C118.865 7.38975 118.784 6.25705 118.468 5.17833C117.414 1.73423 113.401 0.918515 110.221 0.827881ZM111.345 14.2418V14.3475C111.284 15.3546 110.892 16.3145 110.229 17.0816C109.584 17.6654 108.742 17.9912 107.867 17.9955C107.113 18.0853 106.349 17.9512 105.673 17.6103C105.293 17.3742 104.974 17.0528 104.743 16.6722C104.512 16.2917 104.375 15.8627 104.343 15.42C104.297 14.8384 104.825 11.2433 105.108 9.30975L105.238 8.41851C105.343 7.34021 105.863 6.34289 106.69 5.6315C107.347 5.13367 108.155 4.86776 108.983 4.87622C109.688 4.83119 110.39 4.99418 111.001 5.34449C111.352 5.59655 111.636 5.92875 111.829 6.31278C112.022 6.6968 112.118 7.12126 112.109 7.54993C112.124 7.92758 111.864 10.2614 111.345 14.2418Z" fill="#F1361D"/>
<path d="M97.1321 0.977219H94.22C93.4382 0.956478 92.664 1.13365 91.971 1.4919C91.278 1.85016 90.6892 2.37758 90.2606 3.02405L82.877 12.0875L83.0757 11.5437L84.3751 1.25667C84.3813 1.22266 84.379 1.18766 84.3683 1.15474C84.3577 1.12183 84.339 1.09199 84.314 1.06785C84.2919 1.0411 84.2638 1.0197 84.232 1.0053C84.2002 0.9909 84.1655 0.983878 84.1306 0.984771H78.0616C77.9791 0.988441 77.9002 1.01952 77.8378 1.07298C77.7754 1.12643 77.7331 1.19914 77.7177 1.27933L75.18 21.3246C75.1757 21.3569 75.1782 21.3896 75.1875 21.4208C75.1967 21.4521 75.2124 21.481 75.2335 21.5059C75.2832 21.5456 75.3454 21.567 75.4093 21.5663H78.5814C79.3603 21.5751 80.1288 21.3893 80.8156 21.0262C81.5024 20.6631 82.0853 20.1345 82.5101 19.4893L89.7256 10.2219L89.4886 10.7959L88.174 21.2944C88.1666 21.3618 88.1858 21.4294 88.2275 21.4833C88.2529 21.51 88.2838 21.5312 88.318 21.5455C88.3522 21.5598 88.3891 21.5669 88.4262 21.5663H94.4875C94.5711 21.5623 94.6508 21.5302 94.7134 21.4752C94.7759 21.4202 94.8176 21.3458 94.8315 21.2642L97.3538 1.2038C97.3607 1.17333 97.3601 1.14168 97.3521 1.11146C97.3442 1.08125 97.329 1.05336 97.3079 1.03009C97.2582 0.991249 97.1954 0.972372 97.1321 0.977219Z" fill="#F1361D"/>
<path d="M140.772 0.822383L134.589 1.57767C134.5 1.59182 134.418 1.63281 134.353 1.69503C134.289 1.75724 134.246 1.83761 134.23 1.9251L133.351 8.94172L133.305 9.22873H127.396L128.421 1.04897C128.425 1.01674 128.422 0.983977 128.413 0.952768C128.404 0.92156 128.388 0.892588 128.367 0.8677C128.342 0.84871 128.314 0.834895 128.284 0.827102C128.254 0.819309 128.222 0.817703 128.191 0.822383L122.008 1.57767C121.919 1.59182 121.837 1.63281 121.772 1.69503C121.708 1.75724 121.665 1.83761 121.648 1.9251L119.248 21.2907C119.244 21.3246 119.248 21.359 119.258 21.3916C119.269 21.4241 119.286 21.4541 119.31 21.4795C119.332 21.5062 119.36 21.5276 119.392 21.542C119.423 21.5564 119.458 21.5635 119.493 21.5626H125.562C125.647 21.5602 125.728 21.5288 125.792 21.4737C125.857 21.4186 125.899 21.3432 125.914 21.2604L126.892 13.5036V13.4432H132.808L131.822 21.2907C131.818 21.3246 131.821 21.359 131.832 21.3916C131.843 21.4241 131.86 21.4541 131.883 21.4795C131.905 21.5062 131.933 21.5276 131.965 21.542C131.997 21.5564 132.032 21.5635 132.067 21.5626H133.595C136.393 21.5626 138.449 21.2302 138.885 18.0354L141.032 1.04897C141.039 1.0173 141.039 0.984487 141.031 0.953058C141.023 0.921629 141.008 0.892425 140.987 0.8677C140.958 0.84249 140.923 0.825061 140.886 0.817118C140.848 0.809174 140.809 0.810989 140.772 0.822383Z" fill="#F1361D"/>
<path d="M75.3989 5.39535L75.9186 1.23372C75.923 1.19974 75.9198 1.16522 75.9093 1.1326C75.8987 1.09997 75.881 1.07003 75.8575 1.0449C75.8338 1.01797 75.8044 0.996562 75.7713 0.982197C75.7383 0.967833 75.7025 0.960872 75.6664 0.961814H52.6671C52.2471 0.980806 51.8516 1.16263 51.5664 1.46786L45.1382 9.25486H44.221L45.2529 1.08266C45.2588 1.05159 45.257 1.01957 45.2477 0.989324C45.2384 0.95908 45.2218 0.931506 45.1994 0.908944C45.1762 0.887311 45.1483 0.87128 45.1178 0.862107C45.0873 0.852934 45.055 0.850869 45.0236 0.856074L38.84 1.61136C38.7507 1.62443 38.6678 1.66508 38.6033 1.72748C38.5388 1.78988 38.4959 1.87084 38.4808 1.95879L36.0425 21.3017C36.0346 21.3351 36.0354 21.3699 36.0448 21.4029C36.0541 21.4359 36.0717 21.466 36.096 21.4905C36.12 21.517 36.1495 21.5382 36.1824 21.5525C36.2154 21.5668 36.2511 21.574 36.2871 21.5736H42.4019C42.485 21.5682 42.564 21.5356 42.6263 21.4809C42.6886 21.4262 42.7307 21.3525 42.7458 21.2715L43.7318 13.4618H44.6796L49.0899 21.279C49.144 21.3628 49.2171 21.4329 49.3033 21.4841C49.3895 21.5352 49.4865 21.5658 49.5868 21.5736H56.1678C56.2748 21.5736 56.3818 21.5207 56.2901 21.3394L50.267 11.415L55.2659 5.69746H62.489L60.5246 21.3017C60.5168 21.3351 60.5175 21.3699 60.5269 21.4029C60.5362 21.4359 60.5539 21.466 60.5781 21.4905C60.6021 21.517 60.6316 21.5382 60.6645 21.5525C60.6975 21.5668 60.7332 21.574 60.7692 21.5736H66.8381C66.9222 21.571 67.0026 21.5393 67.0655 21.4841C67.1284 21.4289 67.1696 21.3536 67.1821 21.2715L69.1159 5.69746H75.0473C75.1322 5.69513 75.2137 5.66374 75.2778 5.60864C75.3419 5.55354 75.3847 5.47815 75.3989 5.39535Z" fill="#F1361D"/>
<path d="M14.3401 0.969971H8.53864C8.13745 0.98555 7.75856 1.15647 7.48384 1.4458L0.237801 10.1467C0.105311 10.2947 0.0236089 10.4804 0.00438805 10.6771C-0.0148328 10.8738 0.0294124 11.0715 0.130792 11.2419L5.76405 21.0606C5.86015 21.2151 5.99356 21.3436 6.15232 21.4345C6.31108 21.5255 6.4902 21.5761 6.67363 21.5817H11.6954C12.0547 21.5817 12.2305 21.3552 12.0547 21.0757L6.40611 11.257L14.5847 1.43825C14.7987 1.16635 14.6917 0.969971 14.3401 0.969971Z" fill="#F1361D"/>
<path d="M156.574 11.3296L150.94 1.51089C150.843 1.35732 150.709 1.22954 150.551 1.1387C150.392 1.04787 150.214 0.996728 150.031 0.989746H145.001C144.65 0.989746 144.474 1.21633 144.642 1.49579L150.298 11.3145L142.12 21.1483C141.898 21.39 142.005 21.594 142.364 21.594H148.166C148.564 21.5764 148.94 21.4057 149.213 21.1181L156.467 12.4172C156.595 12.2688 156.675 12.0847 156.694 11.8901C156.713 11.6955 156.671 11.4998 156.574 11.3296Z" fill="#F1361D"/>
<path d="M165.185 21.2991L167.776 0.468279C167.8 0.336913 167.869 0.21792 167.973 0.132258C168.076 0.046596 168.207 -0.000239592 168.342 9.21734e-07H185.097C185.156 0.000713661 185.215 0.0137357 185.269 0.0382318C185.324 0.0627278 185.372 0.0981573 185.412 0.142248C185.451 0.186338 185.481 0.238117 185.499 0.294262C185.517 0.350407 185.523 0.40968 185.517 0.468279L182.918 21.2991C182.909 21.4254 182.852 21.5435 182.758 21.6302C182.665 21.7169 182.542 21.7658 182.414 21.7674H180.419C180.355 21.773 180.29 21.7648 180.23 21.7434C180.169 21.722 180.114 21.6878 180.068 21.6433C180.023 21.5987 179.987 21.5449 179.965 21.4854C179.942 21.426 179.933 21.3624 179.937 21.2991L182.292 2.41692H170.521L168.151 21.2991C168.141 21.4267 168.083 21.5459 167.988 21.6327C167.893 21.7196 167.768 21.7677 167.639 21.7674H165.644C165.581 21.7709 165.519 21.761 165.461 21.7385C165.402 21.716 165.35 21.6814 165.306 21.6369C165.263 21.5925 165.229 21.5393 165.209 21.481C165.188 21.4227 165.18 21.3607 165.185 21.2991Z" fill="white"/>
<path d="M202.486 14.0468C201.806 19.5 200.017 22.151 194.59 22.151C193.111 22.158 191.639 21.97 190.21 21.5921L190.325 23.3595L189.851 27.1359C189.837 27.2491 189.785 27.3544 189.703 27.4351C189.621 27.5158 189.515 27.5673 189.4 27.5815L187.405 27.9894C187.138 28.0498 186.985 27.8459 187.015 27.5815L189.308 9.22808C189.454 7.92898 189.691 7.4305 191.212 6.90179C193.148 6.28039 195.168 5.94942 197.204 5.91992C199.23 5.91992 200.544 6.35799 201.408 7.1888C202.394 8.12536 202.723 9.57551 202.723 11.3655C202.7 12.2633 202.621 13.1588 202.486 14.0468ZM199.298 9.1601C198.733 8.2462 197.686 8.07249 196.241 8.07249C194.852 8.14624 193.474 8.36138 192.129 8.71448L190.776 19.6359C192.01 19.9587 193.283 20.1162 194.559 20.1042C197.808 20.1042 199.061 18.6918 199.627 14.0619C199.737 13.2429 199.795 12.4182 199.803 11.5921C199.86 10.7513 199.686 9.91091 199.298 9.1601Z" fill="white"/>
<path d="M218.976 11.0188L218.021 18.7076C217.753 20.7998 217.188 21.2681 215.07 21.7288C213.767 22.0074 212.437 22.1467 211.103 22.1442C209.591 22.242 208.075 22.0099 206.663 21.4644C206.039 21.1623 205.521 20.6831 205.176 20.0884C204.83 19.4936 204.671 18.8103 204.721 18.1261C204.724 17.125 204.927 16.1343 205.317 15.2107C206.273 13.2091 208.153 12.9448 210.415 12.62L216.14 11.7061C216.249 11.0233 216.318 10.3348 216.347 9.6442C216.362 9.37243 216.285 9.10347 216.129 8.87936C215.972 8.65525 215.745 8.48862 215.483 8.40553C214.654 8.15849 213.787 8.05876 212.923 8.11097C211.1 8.18291 209.29 8.45137 207.526 8.91157C207.418 8.93846 207.308 8.95864 207.198 8.972C207.13 8.97408 207.064 8.94998 207.014 8.90485C206.964 8.85971 206.934 8.79708 206.93 8.7303L206.808 7.21973C206.8 7.12272 206.828 7.02627 206.888 6.94843C206.947 6.87059 207.032 6.81667 207.129 6.79677C209.229 6.2277 211.395 5.93065 213.572 5.91309C215.72 5.91309 217.058 6.20765 217.891 6.70614C218.292 6.9321 218.621 7.26359 218.842 7.66365C219.064 8.06372 219.168 8.51666 219.144 8.972C219.152 9.5158 219.03 10.5732 218.976 11.0188ZM208.061 15.8602C207.751 16.4519 207.598 17.1123 207.618 17.7786C207.603 18.0978 207.664 18.416 207.797 18.7073C207.93 18.9987 208.13 19.255 208.382 19.4554C209.147 20.0747 210.354 20.1351 211.44 20.1351C212.699 20.1506 213.953 19.9826 215.162 19.6366L215.926 13.7983L210.53 14.6517C209.46 14.7877 208.596 14.9312 208.061 15.8602Z" fill="white"/>
<path d="M221.708 15.7613C221.683 13.3418 222.289 10.9567 223.466 8.83533C224.957 6.41841 227.754 5.91992 230.231 5.91992C234.053 5.91992 236.644 7.12838 236.644 10.4516C236.644 12.7175 235.329 13.9864 232.975 14.2281V14.6964C233.689 14.8153 234.335 15.188 234.791 15.7443C235.247 16.3006 235.482 17.0022 235.451 17.7175C235.451 20.9577 232.394 22.1661 228.679 22.1661C222.304 22.151 221.708 18.79 221.708 15.7613ZM232.799 17.438C232.799 15.7009 231.782 15.2251 229.275 15.2251C228.801 15.2251 228.266 15.2251 227.67 15.2855L224.506 15.4365C224.467 15.7093 224.45 15.9845 224.452 16.2598C224.452 18.7598 224.896 20.1495 228.924 20.1495C231.186 20.1495 232.799 19.4093 232.799 17.438ZM224.727 13.5936L228.305 13.4124C231.943 13.2387 233.877 12.7402 233.877 10.3535C233.877 8.64651 232.509 7.96675 229.971 7.96675C225.912 7.98185 224.987 10.6329 224.727 13.5936Z" fill="white"/>
<path d="M252.755 14.0475C252.22 18.4962 250.997 22.1518 244.676 22.1518C242.177 22.1518 240.625 21.5928 239.7 20.6412C238.775 19.6895 238.385 18.1941 238.385 16.5475C238.396 15.7077 238.468 14.8697 238.6 14.04C239.135 9.56867 240.358 5.91309 246.679 5.91309C249.086 5.91309 250.638 6.44179 251.593 7.35568C252.549 8.26958 253 9.81792 253 11.4871C252.975 12.3449 252.893 13.2002 252.755 14.0475ZM249.239 8.76052C248.431 8.17444 247.432 7.90533 246.434 8.00523C242.383 8.00523 241.932 10.3315 241.458 14.0475C241.335 14.8985 241.267 15.7561 241.252 16.6155C241.15 17.5273 241.404 18.443 241.963 19.1759C242.371 19.5085 242.842 19.7578 243.348 19.9095C243.855 20.0612 244.387 20.1122 244.913 20.0596C248.972 20.0596 249.415 17.7333 249.897 14.0173C250.014 13.138 250.083 12.253 250.103 11.3663C250.152 10.8987 250.101 10.4261 249.952 9.97957C249.803 9.53307 249.56 9.12276 249.239 8.77562V8.76052Z" fill="white"/>
</svg>
