<svg width="49" height="49" viewBox="0 0 49 49" fill="none" xmlns="http://www.w3.org/2000/svg">
<circle cx="24.5" cy="24.5" r="24.5" fill="white"/>
<path d="M14.0238 22.5002C13.1955 22.487 12.5133 23.1479 12.5002 23.9762C12.487 24.8045 13.1479 25.4867 13.9762 25.4998L14.0238 22.5002ZM37.7437 25.4375C38.3387 24.861 38.3537 23.9114 37.7773 23.3164L28.384 13.6202C27.8076 13.0252 26.8579 13.0102 26.2629 13.5866C25.6679 14.163 25.6529 15.1126 26.2293 15.7077L34.5789 24.3265L25.9601 32.6761C25.3651 33.2525 25.35 34.2021 25.9264 34.7971C26.5029 35.3921 27.4525 35.4072 28.0475 34.8308L37.7437 25.4375ZM13.9762 25.4998L36.6762 25.8599L36.7237 22.8603L14.0238 22.5002L13.9762 25.4998Z" fill="black"/>
</svg>
