<svg width="49" height="49" viewBox="0 0 49 49" fill="none" xmlns="http://www.w3.org/2000/svg">
<circle cx="24.5" cy="24.5" r="24.5" transform="rotate(-180 24.5 24.5)" fill="white"/>
<path d="M34.9762 26.4998C35.8045 26.513 36.4867 25.8521 36.4998 25.0238C36.513 24.1955 35.8521 23.5133 35.0238 23.5002L34.9762 26.4998ZM11.2563 23.5625C10.6613 24.139 10.6463 25.0886 11.2227 25.6836L20.616 35.3798C21.1924 35.9748 22.1421 35.9898 22.7371 35.4134C23.3321 34.837 23.3471 33.8873 22.7707 33.2923L14.4211 24.6735L23.0399 16.3239C23.6349 15.7475 23.65 14.7979 23.0736 14.2029C22.4971 13.6079 21.5475 13.5928 20.9525 14.1692L11.2563 23.5625ZM35.0238 23.5002L12.3238 23.1401L12.2763 26.1397L34.9762 26.4998L35.0238 23.5002Z" fill="black"/>
</svg>
